# xmcd
#
# Track frame offsets:
# 150
# 30101
# 44830
# 68543
# 101585
# 125002
# 151745
# 175830
# 199193
# 217924
# 236972
#
# Disc length: 3514 seconds
#
# Revision: 0
# Processed by: cddbd v1.5.1PL0 Copyright (c) Steve Scherf et al.
# Submitted via: Audion 3.0.2 (http://www.panic.com/audion/)
#
DISCID=910db80b
DTITLE=Backporch - Fou Bar Vol 2
DYEAR=1900
DGENRE=
TTITLE0=Black water blues
TTITLE1=Step it up and go
TTITLE2=Happy trail
TTITLE3=Fly
TTITLE4=Strange brew
TTITLE5=Big boss man
TTITLE6=Dance with me
TTITLE7=Hank to hendrix
TTITLE8=Hold on
TTITLE9=Same old blues - JJ
TTITLE10=Same old blues
EXTD=
EXTT0=
EXTT1=
EXTT2=
EXTT3=
EXTT4=
EXTT5=
EXTT6=
EXTT7=
EXTT8=
EXTT9=
EXTT10=
PLAYORDER=
